<?xml version="1.0" encoding="UTF-8"?>
<svg xmlns="http://www.w3.org/2000/svg" xmlns:xlink="http://www.w3.org/1999/xlink" width="25pt" height="25pt" viewBox="0 0 25 25" version="1.1">
<g id="surface1">
<path style=" stroke:none;fill-rule:nonzero;fill:rgb(98.823529%,83.137255%,38.431373%);fill-opacity:1;" d="M 25 12.5 C 25 19.402344 19.402344 25 12.5 25 C 5.597656 25 0 19.402344 0 12.5 C 0 5.597656 5.597656 0 12.5 0 C 19.402344 0 25 5.597656 25 12.5 Z M 25 12.5 "/>
<path style=" stroke:none;fill-rule:nonzero;fill:rgb(96.470588%,76.470588%,34.509804%);fill-opacity:1;" d="M 12.5 1.738281 C 6.558594 1.738281 1.738281 6.558594 1.738281 12.5 C 1.738281 18.441406 6.558594 23.261719 12.5 23.261719 C 18.441406 23.261719 23.261719 18.441406 23.261719 12.5 C 23.261719 6.558594 18.441406 1.738281 12.5 1.738281 Z M 12.5 22.070312 C 7.222656 22.070312 2.929688 17.777344 2.929688 12.5 C 2.929688 7.222656 7.222656 2.929688 12.5 2.929688 C 17.777344 2.929688 22.070312 7.222656 22.070312 12.5 C 22.070312 17.777344 17.777344 22.070312 12.5 22.070312 Z M 12.5 22.070312 "/>
<path style=" stroke:none;fill-rule:nonzero;fill:rgb(96.470588%,76.470588%,34.509804%);fill-opacity:1;" d="M 12.128906 19.484375 L 12.128906 18.253906 C 10.589844 18.097656 9.207031 17.484375 7.984375 16.417969 L 9.214844 14.953125 C 10.15625 15.769531 11.128906 16.261719 12.128906 16.417969 L 12.128906 13.148438 C 10.859375 12.84375 9.929688 12.445312 9.339844 11.953125 C 8.75 11.457031 8.457031 10.726562 8.457031 9.753906 C 8.457031 8.78125 8.792969 7.984375 9.476562 7.367188 C 10.15625 6.75 11.039062 6.414062 12.128906 6.355469 L 12.128906 5.515625 L 13.207031 5.515625 L 13.207031 6.375 C 14.441406 6.464844 15.613281 6.886719 16.710938 7.636719 L 15.617188 9.1875 C 14.875 8.660156 14.074219 8.335938 13.207031 8.210938 L 13.207031 11.378906 L 13.257812 11.378906 C 14.550781 11.683594 15.5 12.09375 16.105469 12.609375 C 16.710938 13.125 17.015625 13.875 17.015625 14.859375 C 17.015625 15.84375 16.667969 16.640625 15.972656 17.261719 C 15.273438 17.878906 14.355469 18.214844 13.207031 18.269531 L 13.207031 19.484375 Z M 10.941406 8.609375 C 10.652344 8.859375 10.511719 9.175781 10.511719 9.550781 C 10.511719 9.929688 10.625 10.222656 10.847656 10.445312 C 11.074219 10.664062 11.5 10.875 12.128906 11.074219 L 12.128906 8.160156 C 11.625 8.207031 11.226562 8.355469 10.941406 8.609375 Z M 14.488281 15.996094 C 14.800781 15.738281 14.960938 15.410156 14.960938 15.019531 C 14.960938 14.625 14.835938 14.3125 14.589844 14.082031 C 14.339844 13.855469 13.882812 13.636719 13.207031 13.433594 L 13.207031 16.46875 C 13.746094 16.410156 14.171875 16.253906 14.488281 15.996094 Z M 14.488281 15.996094 "/>
</g>
</svg>
