<?xml version="1.0" encoding="UTF-8"?>
<svg xmlns="http://www.w3.org/2000/svg" xmlns:xlink="http://www.w3.org/1999/xlink" width="32pt" height="32pt" viewBox="0 0 32 32" version="1.1">
<g id="surface1">
<path style=" stroke:none;fill-rule:nonzero;fill:rgb(98.431373%,70.980392%,25.098039%);fill-opacity:1;" d="M 12.773438 12.976562 L 19.226562 12.976562 L 19.226562 26.523438 L 12.773438 26.523438 Z M 12.773438 12.976562 "/>
<path style=" stroke:none;fill-rule:nonzero;fill:rgb(91.764706%,41.960784%,39.607843%);fill-opacity:1;" d="M 14.773438 14.976562 L 17.226562 14.976562 L 17.226562 24.523438 L 14.773438 24.523438 Z M 14.773438 14.976562 "/>
<path style=" stroke:none;fill-rule:nonzero;fill:rgb(43.921569%,43.921569%,43.921569%);fill-opacity:1;" d="M 18.226562 29.074219 L 13.773438 29.074219 L 12.773438 26.523438 L 19.226562 26.523438 Z M 18.226562 29.074219 "/>
<path style=" stroke:none;fill-rule:nonzero;fill:rgb(43.921569%,43.921569%,43.921569%);fill-opacity:1;" d="M 13.773438 10.425781 L 18.226562 10.425781 L 19.226562 12.976562 L 12.773438 12.976562 Z M 13.773438 10.425781 "/>
<path style=" stroke:none;fill-rule:nonzero;fill:rgb(25.882353%,25.882353%,25.882353%);fill-opacity:1;" d="M 19.25 31.550781 L 12.75 31.550781 C 12.074219 31.550781 11.5 31 11.5 30.300781 C 11.5 29.625 12.050781 29.050781 12.75 29.050781 L 19.25 29.050781 C 19.925781 29.050781 20.5 29.601562 20.5 30.300781 C 20.5 31 19.949219 31.550781 19.25 31.550781 Z M 19.25 31.550781 "/>
<path style=" stroke:none;fill-rule:nonzero;fill:rgb(98.431373%,70.980392%,25.098039%);fill-opacity:1;" d="M 18.226562 10.425781 L 17.773438 7.476562 C 17.574219 6.125 17.273438 4.800781 16.898438 3.5 L 16 0.425781 L 15.101562 3.476562 C 14.726562 4.773438 14.425781 6.125 14.226562 7.449219 L 13.773438 10.398438 L 18.226562 10.398438 Z M 18.226562 10.425781 "/>
<path style=" stroke:none;fill-rule:nonzero;fill:rgb(20%,13.72549%,9.803922%);fill-opacity:1;" d="M 19.648438 18.375 L 19.648438 19.75 C 19.648438 20 19.449219 20.199219 19.199219 20.199219 C 18.949219 20.199219 18.773438 20 18.773438 19.75 L 18.773438 18.375 C 18.773438 18.125 18.976562 17.925781 19.226562 17.925781 C 19.476562 17.925781 19.648438 18.125 19.648438 18.375 Z M 17.226562 14.523438 C 17.476562 14.523438 17.675781 14.726562 17.675781 14.976562 L 17.675781 24.523438 C 17.675781 24.773438 17.476562 24.976562 17.226562 24.976562 L 14.773438 24.976562 C 14.523438 24.976562 14.324219 24.773438 14.324219 24.523438 L 14.324219 14.976562 C 14.324219 14.726562 14.523438 14.523438 14.773438 14.523438 Z M 16.773438 15.398438 L 15.199219 15.398438 L 15.199219 24.074219 L 16.773438 24.074219 Z M 20.949219 30.324219 C 20.949219 31.25 20.199219 32 19.273438 32 L 12.75 32 C 11.824219 32 11.074219 31.25 11.074219 30.324219 C 11.074219 29.398438 11.824219 28.648438 12.75 28.648438 L 13.148438 28.648438 L 12.375 26.699219 C 12.375 26.699219 12.351562 26.625 12.351562 26.550781 L 12.351562 12.976562 C 12.351562 12.898438 12.351562 12.875 12.375 12.800781 L 13.351562 10.300781 L 13.800781 7.398438 C 13.824219 7.148438 14.050781 7 14.300781 7.023438 C 14.550781 7.050781 14.699219 7.273438 14.675781 7.523438 L 14.300781 9.976562 L 17.726562 9.976562 L 17.351562 7.523438 C 17.148438 6.199219 16.851562 4.875 16.476562 3.601562 L 16 2 L 15.523438 3.601562 C 15.449219 3.851562 15.375 4.101562 15.324219 4.351562 C 15.273438 4.574219 15.023438 4.726562 14.800781 4.675781 C 14.574219 4.625 14.425781 4.375 14.476562 4.148438 L 14.476562 4.125 C 14.550781 3.851562 14.625 3.601562 14.699219 3.351562 L 15.601562 0.300781 C 15.675781 0.0742188 15.898438 -0.0742188 16.148438 0 C 16.300781 0.0507812 16.398438 0.148438 16.449219 0.300781 L 17.351562 3.351562 C 17.75 4.675781 18.023438 6.023438 18.25 7.398438 L 18.699219 10.300781 L 19.675781 12.800781 C 19.675781 12.824219 19.699219 12.875 19.699219 12.976562 L 19.699219 15.898438 C 19.699219 16.148438 19.5 16.351562 19.25 16.351562 C 19 16.351562 18.800781 16.148438 18.800781 15.898438 L 18.800781 13.398438 L 13.226562 13.398438 L 13.226562 26.074219 L 18.800781 26.074219 L 18.800781 22.226562 C 18.800781 21.976562 19 21.773438 19.25 21.773438 C 19.5 21.773438 19.699219 21.976562 19.699219 22.226562 L 19.699219 26.550781 C 19.699219 26.625 19.675781 26.699219 19.675781 26.699219 L 18.898438 28.648438 L 19.25 28.648438 C 20.175781 28.648438 20.925781 29.398438 20.949219 30.324219 Z M 14.074219 10.851562 L 13.425781 12.523438 L 18.574219 12.523438 L 17.925781 10.851562 Z M 14.074219 28.648438 L 17.925781 28.648438 L 18.574219 26.976562 L 13.425781 26.976562 Z M 20.074219 30.324219 C 20.074219 29.875 19.726562 29.523438 19.273438 29.523438 L 12.75 29.523438 C 12.300781 29.523438 11.949219 29.875 11.949219 30.324219 C 11.949219 30.773438 12.300781 31.125 12.75 31.125 L 19.25 31.125 C 19.699219 31.125 20.050781 30.773438 20.074219 30.324219 Z M 20.074219 30.324219 "/>
</g>
</svg>
